<svg width="46" height="46" viewBox="0 0 46 46" fill="none" xmlns="http://www.w3.org/2000/svg">
<circle cx="22.5" cy="22.5" r="20.5" fill="white"/>
<path d="M23.772 21.2943L23.7711 14.6277C23.7742 14.4507 23.7419 14.2748 23.6763 14.1104C23.6107 13.946 23.513 13.7962 23.3889 13.67C23.2648 13.5437 23.1168 13.4434 22.9535 13.3749C22.7903 13.3065 22.615 13.2712 22.4379 13.2712C22.2609 13.2712 22.0856 13.3065 21.9224 13.3749C21.7591 13.4434 21.6111 13.5437 21.487 13.67C21.3629 13.7962 21.2652 13.946 21.1996 14.1104C21.1339 14.2748 21.1017 14.4507 21.1048 14.6277L21.1039 21.2943L14.4382 21.2943C14.2612 21.2912 14.0853 21.3234 13.9209 21.3891C13.7565 21.4547 13.6067 21.5524 13.4805 21.6765C13.3542 21.8006 13.2539 21.9486 13.1854 22.1118C13.117 22.2751 13.0817 22.4504 13.0817 22.6274C13.0817 22.8045 13.117 22.9798 13.1854 23.143C13.2539 23.3063 13.3542 23.4543 13.4805 23.5784C13.6067 23.7025 13.7565 23.8002 13.9209 23.8658C14.0853 23.9314 14.2612 23.9637 14.4382 23.9606L21.1039 23.9606L21.1048 30.6272C21.1017 30.8042 21.1339 30.9801 21.1996 31.1445C21.2652 31.3089 21.3629 31.4587 21.487 31.5849C21.6111 31.7112 21.7591 31.8115 21.9224 31.88C22.0856 31.9484 22.2609 31.9837 22.4379 31.9837C22.615 31.9837 22.7903 31.9484 22.9535 31.88C23.1168 31.8115 23.2648 31.7112 23.3889 31.5849C23.513 31.4587 23.6107 31.3089 23.6763 31.1445C23.7419 30.9801 23.7742 30.8042 23.7711 30.6272L23.7711 23.9615L30.4377 23.9606C30.6147 23.9637 30.7906 23.9314 30.955 23.8658C31.1194 23.8002 31.2692 23.7025 31.3954 23.5784C31.5217 23.4543 31.622 23.3063 31.6905 23.143C31.7589 22.9798 31.7942 22.8045 31.7942 22.6274C31.7942 22.4504 31.7589 22.2751 31.6905 22.1118C31.622 21.9486 31.5217 21.8006 31.3954 21.6765C31.2692 21.5524 31.1194 21.4547 30.955 21.3891C30.7906 21.3234 30.6147 21.2912 30.4377 21.2943L23.772 21.2943Z" fill="black"/>
</svg>
