<svg width="41" height="41" viewBox="0 0 41 41" fill="none" xmlns="http://www.w3.org/2000/svg">
<circle cx="20.5" cy="20.5" r="20.5" fill="white"/>
<path d="M22.3794 20.4941L27.0928 15.7794C27.2201 15.6564 27.3217 15.5093 27.3916 15.3467C27.4615 15.184 27.4982 15.009 27.4998 14.832C27.5013 14.6549 27.4676 14.4794 27.4005 14.3155C27.3335 14.1516 27.2345 14.0028 27.1093 13.8776C26.9841 13.7524 26.8352 13.6534 26.6714 13.5863C26.5075 13.5193 26.3319 13.4856 26.1549 13.4871C25.9779 13.4886 25.8029 13.5254 25.6402 13.5953C25.4776 13.6652 25.3304 13.7668 25.2074 13.8941L20.4928 18.6074L15.7794 13.8941C15.6564 13.7668 15.5093 13.6652 15.3467 13.5953C15.184 13.5254 15.009 13.4886 14.832 13.4871C14.6549 13.4856 14.4794 13.5193 14.3155 13.5863C14.1516 13.6534 14.0028 13.7524 13.8776 13.8776C13.7524 14.0028 13.6534 14.1516 13.5863 14.3155C13.5193 14.4794 13.4856 14.6549 13.4871 14.832C13.4886 15.009 13.5254 15.184 13.5953 15.3467C13.6652 15.5093 13.7668 15.6564 13.8941 15.7794L18.6074 20.4928L13.8941 25.2074C13.7668 25.3304 13.6652 25.4776 13.5953 25.6402C13.5254 25.8029 13.4886 25.9779 13.4871 26.1549C13.4856 26.3319 13.5193 26.5075 13.5863 26.6714C13.6534 26.8352 13.7524 26.9841 13.8776 27.1093C14.0028 27.2345 14.1516 27.3335 14.3155 27.4005C14.4794 27.4676 14.6549 27.5013 14.832 27.4998C15.009 27.4982 15.184 27.4615 15.3467 27.3916C15.5093 27.3217 15.6564 27.2201 15.7794 27.0928L20.4928 22.3794L25.2074 27.0928C25.3304 27.2201 25.4776 27.3217 25.6402 27.3916C25.8029 27.4615 25.9779 27.4982 26.1549 27.4998C26.3319 27.5013 26.5075 27.4676 26.6714 27.4005C26.8352 27.3335 26.9841 27.2345 27.1093 27.1093C27.2345 26.9841 27.3335 26.8352 27.4005 26.6714C27.4676 26.5075 27.5013 26.3319 27.4998 26.1549C27.4982 25.9779 27.4615 25.8029 27.3916 25.6402C27.3217 25.4776 27.2201 25.3304 27.0928 25.2074L22.3794 20.4941Z" fill="black"/>
</svg>
