<svg width="41" height="41" viewBox="0 0 41 41" fill="none" xmlns="http://www.w3.org/2000/svg">
<circle cx="20.5" cy="20.5" r="20.5" fill="white"/>
<path d="M21.772 19.2943L21.7711 12.6277C21.7742 12.4507 21.7419 12.2748 21.6763 12.1104C21.6107 11.946 21.513 11.7962 21.3889 11.67C21.2648 11.5437 21.1168 11.4434 20.9535 11.3749C20.7903 11.3065 20.615 11.2712 20.4379 11.2712C20.2609 11.2712 20.0856 11.3065 19.9224 11.3749C19.7591 11.4434 19.6111 11.5437 19.487 11.67C19.3629 11.7962 19.2652 11.946 19.1996 12.1104C19.1339 12.2748 19.1017 12.4507 19.1048 12.6277L19.1039 19.2943L12.4382 19.2943C12.2612 19.2912 12.0853 19.3234 11.9209 19.3891C11.7565 19.4547 11.6067 19.5524 11.4805 19.6765C11.3542 19.8006 11.2539 19.9486 11.1854 20.1118C11.117 20.2751 11.0817 20.4504 11.0817 20.6274C11.0817 20.8045 11.117 20.9798 11.1854 21.143C11.2539 21.3063 11.3542 21.4543 11.4805 21.5784C11.6067 21.7025 11.7565 21.8002 11.9209 21.8658C12.0853 21.9314 12.2612 21.9637 12.4382 21.9606L19.1039 21.9606L19.1048 28.6272C19.1017 28.8042 19.1339 28.9801 19.1996 29.1445C19.2652 29.3089 19.3629 29.4587 19.487 29.5849C19.6111 29.7112 19.7591 29.8115 19.9224 29.88C20.0856 29.9484 20.2609 29.9837 20.4379 29.9837C20.615 29.9837 20.7903 29.9484 20.9535 29.88C21.1168 29.8115 21.2648 29.7112 21.3889 29.5849C21.513 29.4587 21.6107 29.3089 21.6763 29.1445C21.7419 28.9801 21.7742 28.8042 21.7711 28.6272L21.7711 21.9615L28.4377 21.9606C28.6147 21.9636 28.7906 21.9314 28.955 21.8658C29.1194 21.8002 29.2692 21.7025 29.3954 21.5784C29.5217 21.4543 29.622 21.3063 29.6905 21.143C29.7589 20.9798 29.7942 20.8045 29.7942 20.6274C29.7942 20.4504 29.7589 20.2751 29.6905 20.1118C29.622 19.9486 29.5217 19.8006 29.3954 19.6765C29.2692 19.5524 29.1194 19.4547 28.955 19.3891C28.7906 19.3234 28.6147 19.2912 28.4377 19.2943L21.772 19.2943Z" fill="black"/>
</svg>
