<svg width="79" height="16" viewBox="0 0 79 16" fill="none" xmlns="http://www.w3.org/2000/svg">
<path d="M2.6 10V8.18H5.86C6.56667 8.18 7.14667 7.93333 7.6 7.44C8.05333 6.93333 8.28 6.28667 8.28 5.5C8.28 4.96667 8.16 4.5 7.92 4.1C7.68 3.68667 7.34667 3.36667 6.92 3.14C6.50667 2.9 6.02667 2.78667 5.48 2.8H2.6V0.999999L5.5 0.979999C6.43333 0.979999 7.25333 1.17333 7.96 1.56C8.68 1.94667 9.24 2.48 9.64 3.16C10.0533 3.82667 10.26 4.60667 10.26 5.5C10.26 6.36667 10.0733 7.14 9.7 7.82C9.32667 8.5 8.80667 9.03333 8.14 9.42C7.48667 9.80667 6.73333 10 5.88 10H2.6ZM0.78 15V0.999999H2.74V15H0.78ZM17.9634 15L17.8634 13.26V9.78C17.8634 9.04667 17.7768 8.44 17.6034 7.96C17.4434 7.46667 17.1901 7.09333 16.8434 6.84C16.5101 6.58667 16.0634 6.46 15.5034 6.46C14.9834 6.46 14.5234 6.56667 14.1234 6.78C13.7368 6.99333 13.4168 7.32667 13.1634 7.78L11.4434 7.14C11.6834 6.68667 11.9901 6.28 12.3634 5.92C12.7368 5.56 13.1834 5.28 13.7034 5.08C14.2368 4.86667 14.8501 4.76 15.5434 4.76C16.4768 4.76 17.2568 4.94 17.8834 5.3C18.5234 5.66 18.9968 6.2 19.3034 6.92C19.6234 7.62667 19.7768 8.50667 19.7634 9.56L19.7434 15H17.9634ZM15.0434 15.24C13.8568 15.24 12.9301 14.9733 12.2634 14.44C11.6101 13.8933 11.2834 13.14 11.2834 12.18C11.2834 11.1533 11.6234 10.3733 12.3034 9.84C12.9968 9.29333 13.9568 9.02 15.1834 9.02H17.9634V10.52H15.7034C14.7834 10.52 14.1368 10.6667 13.7634 10.96C13.3901 11.24 13.2034 11.6333 13.2034 12.14C13.2034 12.6067 13.3768 12.9733 13.7234 13.24C14.0834 13.4933 14.5768 13.62 15.2034 13.62C15.7501 13.62 16.2168 13.4933 16.6034 13.24C17.0034 12.9867 17.3101 12.6533 17.5234 12.24C17.7501 11.8133 17.8634 11.34 17.8634 10.82H18.7634C18.7634 12.18 18.4501 13.26 17.8234 14.06C17.1968 14.8467 16.2701 15.24 15.0434 15.24ZM22.1559 15V0.999999H24.0559V15H22.1559ZM31.1072 15.24C30.1339 15.24 29.2739 15.02 28.5272 14.58C27.7805 14.1267 27.1939 13.5067 26.7672 12.72C26.3405 11.9333 26.1272 11.0267 26.1272 10C26.1272 8.97333 26.3405 8.06667 26.7672 7.28C27.1939 6.49333 27.7805 5.88 28.5272 5.44C29.2872 4.98667 30.1539 4.76 31.1272 4.76C32.0339 4.76 32.8339 4.99333 33.5272 5.46C34.2339 5.91333 34.7805 6.56667 35.1672 7.42C35.5672 8.26 35.7672 9.25333 35.7672 10.4H33.8672C33.8805 9.54667 33.7739 8.82667 33.5472 8.24C33.3339 7.65333 33.0139 7.21333 32.5872 6.92C32.1739 6.61333 31.6739 6.46 31.0872 6.46C30.4605 6.46 29.9205 6.60667 29.4672 6.9C29.0139 7.18 28.6605 7.58667 28.4072 8.12C28.1672 8.64 28.0472 9.28 28.0472 10.04C28.0472 10.7467 28.1872 11.36 28.4672 11.88C28.7472 12.3867 29.1272 12.7867 29.6072 13.08C30.0872 13.36 30.6339 13.5 31.2472 13.5C31.9005 13.5 32.4405 13.3467 32.8672 13.04C33.3072 12.7333 33.6539 12.34 33.9072 11.86L35.6072 12.64C35.3405 13.16 34.9939 13.62 34.5672 14.02C34.1405 14.4067 33.6339 14.7067 33.0472 14.92C32.4739 15.1333 31.8272 15.24 31.1072 15.24ZM27.3672 10.4L27.3872 8.84H34.7072V10.4H27.3672ZM41.5042 15.24C40.5042 15.24 39.7309 14.9867 39.1842 14.48C38.6376 13.96 38.3642 13.22 38.3642 12.26V1.88H40.2642V11.98C40.2642 12.4733 40.3842 12.8533 40.6242 13.12C40.8776 13.3733 41.2376 13.5 41.7042 13.5C41.8376 13.5 41.9842 13.4733 42.1442 13.42C42.3042 13.3667 42.4976 13.26 42.7242 13.1L43.4442 14.58C43.0976 14.8067 42.7642 14.9733 42.4442 15.08C42.1376 15.1867 41.8242 15.24 41.5042 15.24ZM36.6642 6.64V5H43.1042V6.64H36.6642ZM47.68 15.24C46.68 15.24 45.9067 14.9867 45.36 14.48C44.8133 13.96 44.54 13.22 44.54 12.26V1.88H46.44V11.98C46.44 12.4733 46.56 12.8533 46.8 13.12C47.0533 13.3733 47.4133 13.5 47.88 13.5C48.0133 13.5 48.16 13.4733 48.32 13.42C48.48 13.3667 48.6733 13.26 48.9 13.1L49.62 14.58C49.2733 14.8067 48.94 14.9733 48.62 15.08C48.3133 15.1867 48 15.24 47.68 15.24ZM42.84 6.64V5H49.28V6.64H42.84ZM55.8377 15.24C54.8643 15.24 54.0043 15.02 53.2577 14.58C52.511 14.1267 51.9243 13.5067 51.4977 12.72C51.071 11.9333 50.8577 11.0267 50.8577 10C50.8577 8.97333 51.071 8.06667 51.4977 7.28C51.9243 6.49333 52.511 5.88 53.2577 5.44C54.0177 4.98667 54.8843 4.76 55.8577 4.76C56.7643 4.76 57.5643 4.99333 58.2577 5.46C58.9643 5.91333 59.511 6.56667 59.8977 7.42C60.2977 8.26 60.4977 9.25333 60.4977 10.4H58.5977C58.611 9.54667 58.5043 8.82667 58.2777 8.24C58.0643 7.65333 57.7443 7.21333 57.3177 6.92C56.9043 6.61333 56.4043 6.46 55.8177 6.46C55.191 6.46 54.651 6.60667 54.1977 6.9C53.7443 7.18 53.391 7.58667 53.1377 8.12C52.8977 8.64 52.7777 9.28 52.7777 10.04C52.7777 10.7467 52.9177 11.36 53.1977 11.88C53.4777 12.3867 53.8577 12.7867 54.3377 13.08C54.8177 13.36 55.3643 13.5 55.9777 13.5C56.631 13.5 57.171 13.3467 57.5977 13.04C58.0377 12.7333 58.3843 12.34 58.6377 11.86L60.3377 12.64C60.071 13.16 59.7243 13.62 59.2977 14.02C58.871 14.4067 58.3643 14.7067 57.7777 14.92C57.2043 15.1333 56.5577 15.24 55.8377 15.24ZM52.0977 10.4L52.1177 8.84H59.4377V10.4H52.0977ZM68.0747 15.3C66.9947 15.3 66.0414 15.08 65.2147 14.64C64.4014 14.1867 63.768 13.56 63.3147 12.76C62.8614 11.9467 62.6347 11.0133 62.6347 9.96H64.5947C64.5947 10.6533 64.7414 11.2667 65.0347 11.8C65.3414 12.3333 65.7547 12.7467 66.2747 13.04C66.808 13.3333 67.4214 13.48 68.1147 13.48C68.808 13.48 69.4214 13.3333 69.9547 13.04C70.488 12.7467 70.9014 12.3333 71.1947 11.8C71.488 11.2667 71.6347 10.6533 71.6347 9.96H73.6147C73.6147 11.0133 73.3814 11.9467 72.9147 12.76C72.4614 13.56 71.8147 14.1867 70.9747 14.64C70.148 15.08 69.1814 15.3 68.0747 15.3ZM62.6347 9.96V0.999999H64.5947V9.96H62.6347ZM71.6347 9.96V0.999999H73.6147V9.96H71.6347ZM76.9558 15V0.999999H78.9158V15H76.9558Z" fill="black"/>
</svg>
